<svg width="41" height="30" viewBox="0 0 41 30" fill="none" xmlns="http://www.w3.org/2000/svg">
<path d="M27.5365 11.2857L19.8942 18.7143M19.8942 11.2857L27.5365 18.7143M14.0096 2C13.4583 1.99977 12.9135 2.11551 12.4125 2.33927C11.9116 2.56303 11.4663 2.8895 11.1074 3.29629L2.9206 12.582C2.32655 13.2553 2 14.113 2 15C2 15.887 2.32655 16.7447 2.9206 17.418L11.1074 26.7037C11.4663 27.1105 11.9116 27.437 12.4125 27.6607C12.9135 27.8845 13.4583 28.0002 14.0096 28H35.1788C36.1923 28 37.1642 27.6087 37.8808 26.9121C38.5974 26.2155 39 25.2708 39 24.2857V5.71429C39 4.7292 38.5974 3.78445 37.8808 3.08789C37.1642 2.39133 36.1923 2 35.1788 2H14.0096Z" stroke="#C7D2D7" stroke-width="4" stroke-linecap="round" stroke-linejoin="round"/>
</svg>
