<svg width="15" height="15" viewBox="0 0 15 15" fill="none" xmlns="http://www.w3.org/2000/svg">
<path d="M6.68492 1.90997C5.41852 1.90997 4.204 2.41304 3.30852 3.30852C2.41305 4.20399 1.90998 5.41852 1.90998 6.68491C1.90998 7.95131 2.41305 9.16583 3.30852 10.0613C4.204 10.9568 5.41852 11.4599 6.68492 11.4599C7.95131 11.4599 9.16584 10.9568 10.0613 10.0613C10.9568 9.16583 11.4599 7.95131 11.4599 6.68491C11.4599 5.41852 10.9568 4.20399 10.0613 3.30852C9.16584 2.41304 7.95131 1.90997 6.68492 1.90997ZM2.10653e-07 6.68491C2.01483e-06 5.62608 0.25152 4.58239 0.733843 3.63979C1.21617 2.69719 1.9155 1.88264 2.77425 1.26322C3.633 0.643808 4.6266 0.237238 5.67324 0.0769969C6.71988 -0.0832445 7.78961 0.00742567 8.79434 0.341541C9.79908 0.675656 10.7101 1.24366 11.4523 1.99878C12.1946 2.75389 12.7468 3.67452 13.0636 4.68486C13.3804 5.69519 13.4527 6.76632 13.2745 7.81005C13.0963 8.85378 12.6727 9.84025 12.0386 10.6882L15 13.6487L13.6496 15L10.6892 12.0395C9.69553 12.7828 8.5146 13.2349 7.2786 13.3451C6.0426 13.4553 4.80033 13.2193 3.69085 12.6635C2.58137 12.1077 1.64848 11.2541 0.996628 10.1982C0.344776 9.14231 -0.000311255 7.92582 2.10653e-07 6.68491Z" fill="#497FC6"/>
</svg>
