<svg width="73" height="62" viewBox="0 0 73 62" fill="none" xmlns="http://www.w3.org/2000/svg">
<path d="M59.9199 12.7359C57.233 15.3865 56.5431 19.1991 57.8139 22.4671L47.2113 33.0697V25.5534C47.2113 23.5564 45.5774 21.9224 43.5803 21.9224H39.8403C39.9492 21.3051 39.9492 20.7242 39.9492 20.1069C39.9492 9.06853 31.0169 0.136178 19.9785 0.136178C15.8653 0.132321 11.8512 1.39935 8.48557 3.76394C5.11989 6.12853 2.56694 9.47519 1.17595 13.3461C-0.215047 17.2171 -0.376153 21.4232 0.714669 25.3892C1.80549 29.3552 4.09496 32.8874 7.2699 35.5025V58.2328C7.2699 60.2298 8.90387 61.8638 10.9009 61.8638H43.5803C45.5774 61.8638 47.2113 60.2298 47.2113 58.2328V43.3092L62.9337 27.5868C66.2016 28.8577 70.0142 28.2041 72.6286 25.5534L59.9199 12.7359ZM7.45146 21.9224C7.37884 21.3051 7.2699 20.7242 7.2699 20.1069C7.2699 13.099 12.9706 7.39825 19.9785 7.39825C26.9864 7.39825 32.6872 13.099 32.6872 20.1069C32.6872 20.7242 32.5782 21.3051 32.5056 21.9224H7.45146Z" fill="#F2FDFF"/>
<path d="M20.3689 46.7249V43.0644H16.7283V40.0007H20.3689V36.3601H23.4325V40.0007H27.0731V43.0644H23.4325V46.7249H20.3689Z" fill="#4793A2"/>
<path d="M36.662 34.311V48.7143H32.8623V37.8124H32.7827L29.5997 39.7222V36.4795L33.1607 34.311H36.662Z" fill="#4793A2"/>
</svg>
