<svg width="24" height="24" viewBox="0 0 24 24" fill="none" xmlns="http://www.w3.org/2000/svg">
<path d="M0.585786 0.585786C1.36684 -0.195262 2.63286 -0.195262 3.41391 0.585786L23.4139 20.5858C24.195 21.3668 24.195 22.6329 23.4139 23.4139C22.6329 24.195 21.3668 24.195 20.5858 23.4139L0.585786 3.41391C-0.195262 2.63286 -0.195262 1.36684 0.585786 0.585786Z" fill="#9C9C9C"/>
<path d="M23.4139 0.585786C22.6329 -0.195262 21.3668 -0.195262 20.5858 0.585786L0.585786 20.5858C-0.195262 21.3668 -0.195262 22.6329 0.585786 23.4139C1.36683 24.195 2.63286 24.195 3.41391 23.4139L23.4139 3.41391C24.195 2.63286 24.195 1.36684 23.4139 0.585786Z" fill="#9C9C9C"/>
</svg>
