<svg width="51" height="43" viewBox="0 0 51 43" fill="none" xmlns="http://www.w3.org/2000/svg">
<path d="M42.076 8.77706C40.1892 10.6235 39.7047 13.2794 40.5971 15.5559L33.1519 22.9418V17.7059C33.1519 16.3147 32.0046 15.1765 30.6022 15.1765H27.976C28.0525 14.7465 28.0525 14.3418 28.0525 13.9118C28.0525 6.22236 21.7802 6.11795e-06 14.029 6.11795e-06C11.1406 -0.00268111 8.32197 0.87994 5.95859 2.52713C3.5952 4.17433 1.80251 6.50564 0.825754 9.20217C-0.151007 11.8987 -0.264136 14.8287 0.501842 17.5915C1.26782 20.3542 2.8755 22.8148 5.10495 24.6365V40.4706C5.10495 41.8618 6.25232 43 7.65467 43H30.6022C32.0046 43 33.1519 41.8618 33.1519 40.4706V30.0747L44.1922 19.1224C46.487 20.0077 49.1642 19.5524 51 17.7059L42.076 8.77706ZM5.23243 15.1765C5.18144 14.7465 5.10495 14.3418 5.10495 13.9118C5.10495 9.03001 9.10802 5.05883 14.029 5.05883C18.95 5.05883 22.953 9.03001 22.953 13.9118C22.953 14.3418 22.8765 14.7465 22.8255 15.1765H5.23243Z" fill="#497FC6"/>
</svg>
